<svg viewBox="0 0 32 32" fill="none" xmlns="http://www.w3.org/2000/svg" role="img" aria-label="forgedCV">
  <!-- Anvil base -->
  <rect x="4" y="20" width="24" height="3" rx="0.5" fill="#1C1917"/>
  <!-- Anvil support -->
  <path d="M12 23h8v3a1 1 0 0 1-1 1h-6a1 1 0 0 1-1-1v-3Z" fill="#1C1917"/>
  <!-- Resume document -->
  <rect x="9" y="11" width="14" height="9" rx="1" fill="#FFFFFF" stroke="#1C1917" stroke-width="1.2"/>
  <rect x="11" y="13.5" width="6" height="1" rx="0.3" fill="#1C1917"/>
  <rect x="11" y="15.5" width="10" height="0.8" rx="0.3" fill="#57534E"/>
  <rect x="11" y="17" width="8" height="0.8" rx="0.3" fill="#57534E"/>
  <!-- Hammer head -->
  <rect x="18" y="3" width="9" height="5" rx="1" transform="rotate(35 22.5 5.5)" fill="#EA580C"/>
  <!-- Hammer handle -->
  <rect x="23.5" y="6" width="1.6" height="9" rx="0.6" transform="rotate(35 24.3 10.5)" fill="#EA580C"/>
  <!-- Spark / impact -->
  <circle cx="15" cy="10.5" r="1.1" fill="#EA580C"/>
  <path d="M15 8.2v1.4M15 11.4v1.4M12.8 10.5h1.4M16.8 10.5h1.4" stroke="#EA580C" stroke-width="1" stroke-linecap="round"/>
</svg>
