<svg viewBox="0 0 40 40" fill="none" xmlns="http://www.w3.org/2000/svg" role="img" aria-label="forgedCV">
  <title>forgedCV</title>
  <!-- Document / page -->
  <path d="M8 7h13l5 5v21a2 2 0 0 1-2 2H8a2 2 0 0 1-2-2V9a2 2 0 0 1 2-2Z" fill="#FFFFFF" stroke="#1C1917" stroke-width="1.6" stroke-linejoin="round"/>
  <!-- Folded corner -->
  <path d="M21 7v5h5" stroke="#1C1917" stroke-width="1.6" stroke-linejoin="round" fill="none"/>
  <!-- Text lines -->
  <rect x="9.5" y="16" width="8" height="1.6" rx="0.4" fill="#1C1917"/>
  <rect x="9.5" y="20" width="13" height="1.3" rx="0.4" fill="#57534E"/>
  <rect x="9.5" y="23" width="11" height="1.3" rx="0.4" fill="#57534E"/>
  <rect x="9.5" y="26" width="13" height="1.3" rx="0.4" fill="#57534E"/>
  <rect x="9.5" y="29" width="9" height="1.3" rx="0.4" fill="#57534E"/>
  <!-- Hammer handle -->
  <rect x="30.2" y="4" width="2.4" height="13" rx="1.2" transform="rotate(42 31.4 10.5)" fill="#EA580C"/>
  <!-- Hammer head -->
  <rect x="23.5" y="2.5" width="9" height="6" rx="1.3" transform="rotate(42 28 5.5)" fill="#EA580C"/>
  <!-- Head highlight -->
  <rect x="24.5" y="3.6" width="3" height="1.2" rx="0.4" transform="rotate(42 26 4.2)" fill="rgba(255,255,255,0.35)"/>
  <!-- Impact spark -->
  <path d="M24.5 16.5 L25.8 18 L24.5 19.5 L23.2 18 Z" fill="#EA580C"/>
  <circle cx="28" cy="13" r="1.1" fill="#EA580C"/>
  <circle cx="20.5" cy="20.5" r="0.9" fill="rgba(234,88,12,0.7)"/>
</svg>
